<svg xmlns="http://www.w3.org/2000/svg" version="1.1" xmlns:xlink="http://www.w3.org/1999/xlink" xmlns:svgjs="http://svgjs.dev/svgjs" viewBox="0 0 14.601104320942154 7.236158705970369"><g transform="matrix(1,0,0,1,7.300552160471077,6.050165871671167)"><g transform="matrix(1,0,0,1,0,0)"><path d=" M -2.463469347997278 -1.4047322053882003 Q -2.4464778097432354 -1.3347658732865286 -2.455286314851798 -1.2693391185316698 Q -2.4640948199603603 -1.2039123637768112 -2.495746434196344 -1.1499176851847823 Q -2.527398048432327 -1.0959230065927534 -2.5787137341062234 -1.057219642348571 Q -2.6300294197801195 -1.0185162781043884 -2.698052242656745 -1.0019967270240693 Q -2.7728773478210327 -0.9838252208357181 -2.8427672148606002 -0.9961806441466191 Q -2.912657081900168 -1.0085360674575201 -2.971586859950629 -1.0456781091208884 Q -3.03051663800109 -1.0828201507842568 -3.0716077183789663 -1.1397303705464308 Q -3.112698798756842 -1.1966405903086046 -3.1301623241846084 -1.2685504316353227 Q -3.1426699842882786 -1.3200534260990533 -3.145571219327022 -1.3574243082835824 Q -3.148472454365766 -1.3947951904681117 -3.144744964440431 -1.4260578809930253 Q -3.1410174745150954 -1.457320571517939 -3.134020730371898 -1.487833610884653 L -2.972181916989168 -1.5333110611525584 L -2.9684060195993807 -1.517762987352187 L -3.068025034848124 -1.419477424827111 Q -3.0840869048861212 -1.3754431616803011 -3.0871966305792258 -1.345874096661034 Q -3.0903063562723303 -1.3163050316417668 -3.0815745935584475 -1.280350110978408 Q -3.064111068130681 -1.2084402696516898 -3.0173837832669133 -1.160102284078641 Q -2.970656498403145 -1.1117642985055924 -2.9045634332853156 -1.0938560115040283 Q -2.8384703681674868 -1.0759477245024645 -2.7636452630031987 -1.0941192306908156 Q -2.669385065588447 -1.1170106086164007 -2.6105937728645046 -1.1673055775481709 Q -2.551802480140562 -1.2176005464799409 -2.5301390616148742 -1.2830619572330013 Q -2.5084756430891866 -1.3485233679860618 -2.525703174930091 -1.4194614547002564 Q -2.53254698894908 -1.4476423384634298 -2.54267394731847 -1.4745113673663255 Q -2.55280090568786 -1.5013803962692212 -2.569362265832081 -1.5272013441637775 L -2.7355323045735513 -1.4868464408104263 L -2.754370814456312 -1.39068454323453 L -2.769918888256683 -1.386908645844743 L -2.832221195188173 -1.6434518635508724 L -2.8166731213878013 -1.6472277609406594 L -2.7573963673564608 -1.589588655885949 L -2.6038591385777923 -1.6268756426100983 Q -2.5715137110463373 -1.603858837492806 -2.5436245200664667 -1.5674110251237725 Q -2.5157353290865956 -1.5309632127547388 -2.4946762006594634 -1.4887404332407188 Q -2.473617072232331 -1.4465176537266986 -2.463469347997278 -1.4047322053882003 M -2.5505761409787047 -1.821446225208974 L -2.5665596811304305 -1.8221717899670553 L -2.6028453599219583 -1.9049023738803705 L -3.1502816101185664 -1.9297529668446567 L -3.1939136320856676 -1.8506502067217483 L -3.2098971722373935 -1.8513757714798296 L -3.1972904845657304 -2.129089781616065 Q -3.1925289658408214 -2.2339817638617654 -3.1463301743118217 -2.292446895874445 Q -3.100131382782822 -2.3509120278871247 -3.0242095670621247 -2.347465595286238 Q -2.9682671765310844 -2.3449261186329533 -2.9270346286737645 -2.305015255485261 Q -2.8858020808164446 -2.2651043923375687 -2.865637305285904 -2.2021251749098893 L -2.57835359018535 -2.3782787074831067 L -2.5383533511600183 -2.4435319133653954 L -2.5223698110082924 -2.4428063486073137 L -2.529670806386486 -2.281971975830573 L -2.8420648463662523 -2.103955224413409 L -2.845828713548799 -2.021040609876332 L -2.5990828124565324 -2.009839703923451 L -2.5547239060142286 -2.082903288692082 L -2.5387403658625027 -2.082177723934001 L -2.5505761409787047 -1.821446225208974 M -3.1438435426077156 -2.093629601197226 L -3.1465190626531405 -2.0346902968877374 L -2.898774190301391 -2.0234440431374763 L -2.895826583471685 -2.0883771750038624 Q -2.8930150200341203 -2.1503133930917997 -2.926641913951868 -2.1923815759078487 Q -2.9602688078696167 -2.2344497587238976 -3.015212227141174 -2.2369438875798022 Q -3.072153588931697 -2.239528712030467 -3.1064113928614034 -2.2015431506957466 Q -3.1406691967911096 -2.1635575893610266 -3.1438435426077156 -2.093629601197226 M -2.3888670312671096 -2.818934928929226 Q -2.412516197849592 -2.7509296576632867 -2.456801727878816 -2.701217568288259 Q -2.5010872579080394 -2.6515054789132315 -2.5590077707150285 -2.6234748849813245 Q -2.616928283522017 -2.595444291049418 -2.6836998943977157 -2.5921959097503264 Q -2.7504715052734143 -2.588947528451235 -2.8203658118522963 -2.6132536163276754 Q -2.8902601184311787 -2.6375597042041155 -2.940608696957931 -2.681537205728593 Q -2.990957275484684 -2.7255147072530708 -3.018987869416591 -2.7834352200600594 Q -3.047018463348498 -2.841355732867048 -3.050903333799314 -2.9078193152380005 Q -3.054788204250131 -2.974282897608953 -3.031139037667648 -3.0422881688748924 Q -3.007489871085166 -3.1102934401408318 -2.963204341055942 -3.160005529515859 Q -2.9189188110267184 -3.2097176188908865 -2.8609982982197297 -3.2377482128227935 Q -2.8030777854127407 -3.2657788067547004 -2.7361419442135526 -3.2694994468820275 Q -2.6692061030143646 -3.2732200870093546 -2.5993117964354826 -3.248913999132914 Q -2.5294174898566 -3.224607911256474 -2.4792331416533373 -3.180158150903761 Q -2.429048793450074 -3.1357083905510477 -2.4010181995181674 -3.0777878777440586 Q -2.3729876055862604 -3.01986736493707 -2.369102735135444 -2.9534037825661175 Q -2.3652178646846274 -2.8869402001951654 -2.3888670312671096 -2.818934928929226 M -2.4295237011511004 -2.8542483144075996 Q -2.409487601685386 -2.9118638914523536 -2.42460297693144 -2.9658224443533627 Q -2.4397183521774934 -3.0197809972543714 -2.4859603994313817 -3.063389173847405 Q -2.53220244668527 -3.1069973504404382 -2.606819341546509 -3.132945741551773 Q -2.698437554224233 -3.1648064243087286 -2.777425825021733 -3.158395256207616 Q -2.856414095819234 -3.1519840881065035 -2.9122601376619297 -3.1131740428797348 Q -2.9681061795046255 -3.0743639976529655 -2.9901130428522134 -3.011081314669383 Q -3.0101491423179274 -2.953465737624629 -2.9958344865470883 -2.898726897390638 Q -2.981519830776249 -2.843988057156647 -2.935442013845851 -2.799907621735378 Q -2.889364196915452 -2.755827186314109 -2.814747302054213 -2.729878795202774 Q -2.723129089376489 -2.698018112445819 -2.6435043294272633 -2.7047373090516773 Q -2.5638795694780376 -2.711456505657536 -2.507869297311852 -2.7507388097125407 Q -2.4518590251456667 -2.790021113767546 -2.4295237011511004 -2.8542483144075996 M -2.0116021515510245 -3.5193150062348093 Q -2.058295048529078 -3.4580877788617124 -2.1175499716733373 -3.426562327506214 Q -2.1768048948175966 -3.3950368761507153 -2.2454352660919947 -3.403987973219694 Q -2.314065637366393 -3.4129390702886733 -2.3911960406805535 -3.471759992455832 L -2.662345190475696 -3.678542821930069 L -2.7432700443736984 -3.638391009746969 L -2.75599258512655 -3.6480934298982532 L -2.5940834488520004 -3.8604008287114584 L -2.581360908099149 -3.8506984085601745 L -2.5986730582328956 -3.7620344956206555 L -2.3362706552053383 -3.561922080000426 Q -2.270272475049923 -3.5115907754656406 -2.215940840647006 -3.5028544431054445 Q -2.1616092062440893 -3.494118110745249 -2.1182292160899414 -3.5163706713670297 Q -2.0748492259357936 -3.5386232319888107 -2.041497156665755 -3.5823569658267367 Q -2.014815501249725 -3.6173439528970777 -2.006785891765637 -3.6583808310864945 Q -1.9987562822815501 -3.6994177092759117 -2.018111344021515 -3.7424744344770016 Q -2.03746640576148 -3.785531159678091 -2.0907420451640446 -3.826160044061592 L -2.38256532368257 -4.0487093062816655 L -2.4722086813972055 -3.993826992029751 L -2.484931222150057 -4.0035294121810345 L -2.3339373085457016 -4.201523952647282 L -2.3212147677928505 -4.191821532495998 L -2.3393220767236502 -4.103764020815935 L -2.0673777681314545 -3.896374790082242 Q -1.9902473648172938 -3.8375538679150836 -1.9634586804453076 -3.7737368138494336 Q -1.9366699960733214 -3.7099197597837836 -1.950789625323146 -3.6452309966958447 Q -1.9649092545729707 -3.580542233607906 -2.0116021515510245 -3.5193150062348093 M -1.7123023796563563 -3.879361908388395 L -1.7217410564955895 -3.8922813270875674 L -1.6799331914291116 -3.9723631753341153 L -2.003207873172842 -4.4148532657807715 L -2.092209122435485 -4.399368511030085 L -2.1016477992747182 -4.412287929729258 L -1.8755579720392004 -4.577464774415835 Q -1.7802772591328035 -4.647075016105179 -1.6971771628154382 -4.654533165476476 Q -1.6140770664980726 -4.661991314847772 -1.5592147573700308 -4.5868971936588325 Q -1.5267693057351672 -4.542486691880427 -1.53197770795714 -4.486047587118798 Q -1.5371861101791127 -4.429608482357168 -1.574410811065727 -4.372070915117129 Q -1.6116355119523411 -4.314533347877089 -1.6778475327856 -4.26616012907602 L -1.7343699895944793 -4.224865917904376 L -1.5951495062157925 -4.034304492091582 L -1.4972661565974683 -4.056278337169241 L -1.4878274797582354 -4.0433589184700685 L -1.7123023796563563 -3.879361908388395 M -1.919014105261975 -4.477602046206936 L -1.7656356066244387 -4.267661492345384 L -1.7042683678033697 -4.312495207331741 Q -1.6404787379762056 -4.359098674225454 -1.6253798957730574 -4.414713644908935 Q -1.6102810535699092 -4.470328615592416 -1.6433164225072248 -4.515546581039519 Q -1.684610633678869 -4.572069037848398 -1.7396376669806548 -4.570259174316476 Q -1.7946647002824403 -4.568449310784554 -1.8632991121217939 -4.518306340076128 L -1.919014105261975 -4.477602046206936 M -1.1702756248323363 -4.242909566241261 L -1.176879906054801 -4.257482948468274 L -1.1187020251975248 -4.327763345300936 L -1.344898657066944 -4.826901686576109 L -1.436097944036544 -4.829488200878508 L -1.442702225259009 -4.84406158310552 L -1.1995089093457405 -4.954270526005401 L -1.1929046281232756 -4.939697143778389 L -1.2501716725913636 -4.86982951452213 L -1.0239750407219446 -4.370691173246958 L -0.9336865901415327 -4.367691891368155 L -0.9270823089190678 -4.353118509141143 L -1.1702756248323363 -4.242909566241261 M -0.8127225022375708 -4.406084232504138 L -0.8161837928280202 -4.421705354981363 L -0.7457550867631917 -4.478280944788576 L -0.864304289486083 -5.013304389633535 L -0.9520394485031585 -5.034834412212447 L -0.9555007390936078 -5.0504555346896725 L -0.4653880213706709 -5.159053526965022 L -0.4281791475233401 -4.991126460334852 L -0.4438002700005652 -4.987665169744403 L -0.5325717675069531 -5.08783313483541 L -0.7620070038911965 -5.0369954292881856 L -0.7107366370201651 -4.805607552594289 L -0.5486674913189549 -4.841518442470201 L -0.5170469390226592 -4.9345621992326905 L -0.5014258165454342 -4.93802348982314 L -0.453616740264852 -4.722256735606468 L -0.46923786274207707 -4.718795445016019 L -0.5367693049142851 -4.78782083395474 L -0.6988384506154953 -4.751909944078827 L -0.643025139844499 -4.500019344133573 L -0.3872292592799384 -4.556697977552182 L -0.3513477764325923 -4.699850061674892 L -0.33572665395536727 -4.703311352265342 L -0.2952728201794901 -4.520739483312774 L -0.8127225022375708 -4.406084232504138 M -0.1804309885832242 -4.74319332751376 L -0.18200071049060446 -4.81317572510868 L 0.09293013720372484 -4.819342489744817 L 0.09449985911110509 -4.749360092149897 L -0.1804309885832242 -4.74319332751376 M 0.2975764105716071 -4.511692412287766 L 0.30039890276759074 -4.527441492826121 L 0.40687120415591965 -4.548997212184863 L 0.5037179676306092 -5.08938753815719 L 0.3481957973143475 -5.117259648592529 L 0.2516719823257987 -4.981152510131475 L 0.23592290178744307 -4.983975002327458 L 0.2722624888107328 -5.186744414258787 L 0.8569471037971845 -5.0819593914828936 L 0.8206075167738949 -4.879189979551565 L 0.8048584362355393 -4.882012471747549 L 0.7625934789798293 -5.042992822685708 L 0.6060869911299205 -5.071041338883296 L 0.509240227655231 -4.530651012910969 L 0.602584385597289 -4.473284923815685 L 0.5997618934013053 -4.457535843277329 L 0.2975764105716071 -4.511692412287766 M 0.840641599147405 -4.397215452972834 L 0.8475032115780374 -4.411669458467913 L 0.9378306454734588 -4.413067559275536 L 1.1728408712226168 -4.9081172474820125 L 1.1168214994803574 -4.978989174149788 L 1.1236831119109896 -4.993443179644868 L 1.374821457387998 -4.87422266366263 Q 1.4696758684494577 -4.829193332086605 1.505675067931946 -4.763951032643529 Q 1.541674267414434 -4.698708733200453 1.5090816083689302 -4.630052207098825 Q 1.485065964861717 -4.579463187866047 1.4322971184035787 -4.556914377620772 Q 1.37952827194544 -4.534365567375497 1.3136554327829724 -4.54017668264502 L 1.364744005934449 -4.2070821649877255 L 1.4094026751992572 -4.144924275227081 L 1.4025410627686248 -4.130470269732001 L 1.2570976324743863 -4.199515244815239 L 1.2140202027154456 -4.55648069838934 L 1.1390400492097204 -4.592075312873245 L 1.0331139073118334 -4.368941603042954 L 1.0832841762165235 -4.299739405693223 L 1.0764225637858913 -4.285285400198143 L 0.840641599147405 -4.397215452972834 M 1.3214232783240973 -4.838689095411474 L 1.2681241330609914 -4.86399129124943 L 1.1617691403861898 -4.639954206075696 L 1.2204885377099508 -4.6120789055762526 Q 1.2764978090033843 -4.585490157407552 1.32830871299327 -4.600191525634722 Q 1.3801196169831558 -4.614892893861891 1.4037064097134546 -4.664578537751228 Q 1.4281509039975824 -4.716070932327449 1.4064052281813266 -4.762370236677453 Q 1.3846595523650707 -4.808669541027457 1.3214232783240973 -4.838689095411474 M 1.420994314803793 -4.116227930177271 L 1.4315246800853239 -4.128274149793296 L 1.5006755482165834 -4.111656164455321 L 2.0995870141379425 -4.406291627337726 L 2.1409958940680314 -4.370093496682463 L 1.9287850106237858 -3.741403158799167 L 1.9555352333824494 -3.670203260046698 L 1.9450048681009184 -3.658157040430672 L 1.7462422444364916 -3.8319080675759336 L 1.7567726097180225 -3.843954287191959 L 1.8460619916595138 -3.8123883835535954 L 1.908814835352618 -3.9966112936609672 L 1.7273686523862282 -4.155224920714028 L 1.5532830181407906 -4.066996852904721 L 1.5941486449016733 -3.9861142184926277 L 1.5836182796201421 -3.9740679988766017 L 1.420994314803793 -4.116227930177271 M 1.7808832237395282 -4.181496400551916 L 1.9284494140358452 -4.052499425853162 L 2.0132799459407473 -4.298444096168929 L 1.7808832237395282 -4.181496400551916 M 2.1551740162028206 -3.3108369530975295 Q 2.099828467301773 -3.397703921600187 2.0949497926370455 -3.48352465646954 Q 2.0900711179723177 -3.5693453913388926 2.1296062752126197 -3.643148991129043 Q 2.1691414324529212 -3.7169525909191927 2.2475747146931853 -3.7669247855580026 Q 2.3082972557824215 -3.8056129362461135 2.377318239796008 -3.8163880819897313 Q 2.446339223809595 -3.827163227733349 2.5145684232934173 -3.8131266206719268 Q 2.58279762277724 -3.799090013610504 2.64068576047716 -3.7612718498047992 Q 2.6985738981770795 -3.7234536859990945 2.7367247134389667 -3.6635745135360973 Q 2.7641288201763787 -3.6205627135978884 2.7774536640236542 -3.587552131409055 Q 2.7907785078709297 -3.5545415492202217 2.7966998615165695 -3.5257068900232884 Q 2.8026212151622096 -3.4968722308263556 2.8058594463291233 -3.46573521332452 L 2.6589638434158536 -3.365029295699254 L 2.6492918057438257 -3.3802099309715627 L 2.7218535827455073 -3.5082559715911703 Q 2.723825025283645 -3.54982655511268 2.7183253559511247 -3.578929882022725 Q 2.7128256866186047 -3.6080332089327696 2.694556282126997 -3.6367077422249094 Q 2.657480137717557 -3.6949001774354278 2.597565418730632 -3.721941376534539 Q 2.5376506997437067 -3.7489825756336503 2.4671707260514566 -3.7414278877949823 Q 2.3966907523592065 -3.733873199956314 2.3266911563813366 -3.689274359579742 Q 2.2482578741410726 -3.639302164940932 2.208562590995977 -3.57784661599675 Q 2.168867307850882 -3.5163910670525684 2.167290848096139 -3.453729158570288 Q 2.165714388341396 -3.3910672500880077 2.199566520193493 -3.3379350266349257 Q 2.227507962357129 -3.294079858070477 2.258390530755424 -3.2716629678061113 Q 2.289273099153719 -3.2492460775417453 2.3203424949865328 -3.2358411291052938 L 2.4508012546823377 -3.2395169988843158 L 2.4599359569281414 -3.225179732238246 L 2.3177055829889133 -3.148789152131093 Q 2.2755087144578012 -3.1740759923087034 2.2368347823792614 -3.2087217276535407 Q 2.198160850300722 -3.2433674629983775 2.1551740162028206 -3.3108369530975295 M 2.3559556581808736 -2.98279572644642 L 2.371327567003982 -2.9872346924447184 L 2.4322296044281373 -2.9205118190234787 L 2.958717481619593 -3.0725464044651942 L 2.974674988310979 -3.161464107877925 L 2.990046897134087 -3.1659030738762235 L 3.0641221422306892 -2.909384345390605 L 3.0487502334075813 -2.904945379392307 L 2.9878481959834255 -2.9716682528135467 L 2.4613603187919697 -2.819633667371831 L 2.445402812100584 -2.7307159639591 L 2.430030903277476 -2.726276997960802 L 2.3559556581808736 -2.98279572644642 M 2.7313294674978073 -2.8975930077169445 L 3.070184825262736 -2.708167437864292 L 3.0831522198943926 -2.7858130860132184 L 3.098524128717501 -2.7902520520115166 L 3.158450169694527 -2.5827312828995557 L 3.143078260871419 -2.5782923169012575 L 3.1015812247170134 -2.631883323519905 L 2.789410949081731 -2.8081975855913326 L 2.562619146579587 -2.422121843906066 L 2.5541574790588912 -2.354104197792949 L 2.5387855702357833 -2.349665231794651 L 2.4935636041281195 -2.506266552930066 L 2.7313294674978073 -2.8975930077169445 M 2.538527505186585 -2.272176145139234 L 2.5545270707392036 -2.2722940524225885 L 2.5951228902427306 -2.191591020020844 L 3.1431080104199096 -2.195629344475731 L 3.1825100186794737 -2.276921913294247 L 3.198509584232092 -2.2770398205776017 L 3.2022089252473354 -1.7750534513642005 L 3.0302135955566882 -1.773785948068141 L 3.0300956882733336 -1.7897855136207594 L 3.1466135130382282 -1.8556459456878003 L 3.144881749813961 -2.0906395647418825 L 2.9078881850658016 -2.088893063107196 L 2.9091114731306034 -1.9228975704987805 L 2.9934850217475417 -1.8725179685374198 L 2.993602929030896 -1.8565184029848014 L 2.772608929835355 -1.8548898086334693 L 2.7724910225520008 -1.8708893741860877 L 2.8541129665434775 -1.9224922642122497 L 2.852889678478676 -2.0884877568206655 L 2.594896683942705 -2.0865865018765763 L 2.596827415707633 -1.8245936159524505 L 2.729310199060571 -1.7595681431355734 L 2.729428106343925 -1.743568577582955 L 2.5424331839476983 -1.7421905362087509 L 2.538527505186585 -2.272176145139234 M 2.5284698045705354 -1.6111862648054396 L 2.5439501455748808 -1.6071416335009587 L 2.5621750521068094 -1.5186608289052586 L 3.0923767315056345 -1.3801322067267874 L 3.1515535299954323 -1.4483898548000829 L 3.167033870999777 -1.444345223495602 L 3.096758402084421 -1.1753742985451032 Q 3.0702155091487655 -1.0737845607040875 3.0128345699231334 -1.0262458626404645 Q 2.955453630697501 -0.9787071645768415 2.8819220109268615 -0.9979191632731258 Q 2.827740817411653 -1.012075372838809 2.7957434003106174 -1.0597111293549215 Q 2.7637459832095814 -1.107346885871034 2.7571659393206986 -1.173147364763063 L 2.4394502857732476 -1.0608140950211207 L 2.3867151036131853 -1.005343376957037 L 2.37123476260884 -1.0093880082615179 L 2.4119338651101794 -1.165158939617742 L 2.75459591984651 -1.2740750368847478 L 2.775577444738505 -1.3543793058447888 L 2.536599680483925 -1.4168183016077127 L 2.477972097420536 -1.3546185708675769 L 2.4624917564161906 -1.3586632021720577 L 2.5284698045705354 -1.6111862648054396 M 3.051886781947476 -1.2212059219757185 L 3.0668013598827497 -1.2782896794292418 L 2.8268560743153985 -1.3409814646486957 L 2.8104247596409446 -1.2780925793185431 Q 2.7947518133360814 -1.2181062579267052 2.818860846950005 -1.1699476190526394 Q 2.8429698805639285 -1.1217889801785734 2.8961835527663653 -1.1078855600694202 Q 2.9513322675943456 -1.093476561047207 2.992761893792359 -1.1234779955644574 Q 3.0341915199903724 -1.153479430081708 3.051886781947476 -1.2212059219757185" fill="#ffffff" fill-rule="nonzero"></path></g><g transform="matrix(1,0,0,1,0,0)"><path d=" M -6.340559326171875 0.33499999999999996 L -6.340559326171875 0.32699999999999996 L -6.295559326171875 0.30699999999999994 L -6.295559326171875 0.18099999999999997 L -6.406559326171875 0.02949999999999997 L -6.437059326171875 0.012999999999999956 L -6.437059326171875 0.004999999999999949 L -6.316059326171875 0.004999999999999949 L -6.316059326171875 0.012999999999999956 L -6.352559326171875 0.03049999999999997 L -6.352559326171875 0.03249999999999997 L -6.263059326171875 0.15399999999999997 L -6.182559326171875 0.032999999999999974 L -6.182559326171875 0.030999999999999972 L -6.219059326171875 0.012999999999999956 L -6.219059326171875 0.004999999999999949 L -6.113059326171875 0.004999999999999949 L -6.113059326171875 0.012999999999999956 L -6.145059326171875 0.02949999999999997 L -6.250559326171875 0.18049999999999997 L -6.250559326171875 0.30699999999999994 L -6.205559326171875 0.32699999999999996 L -6.205559326171875 0.33499999999999996 L -6.340559326171875 0.33499999999999996 M -5.91403955078125 0.33999999999999997 Q -5.95003955078125 0.33999999999999997 -5.98028955078125 0.32725 Q -6.01053955078125 0.31449999999999995 -6.03303955078125 0.29174999999999995 Q -6.05553955078125 0.26899999999999996 -6.06803955078125 0.23799999999999996 Q -6.08053955078125 0.20699999999999996 -6.08053955078125 0.16999999999999996 Q -6.08053955078125 0.13299999999999995 -6.06803955078125 0.10199999999999995 Q -6.05553955078125 0.07099999999999995 -6.03303955078125 0.04824999999999996 Q -6.01053955078125 0.025499999999999967 -5.98028955078125 0.012749999999999984 Q -5.95003955078125 -5.551115123125783e-17 -5.91403955078125 -5.551115123125783e-17 Q -5.87803955078125 -5.551115123125783e-17 -5.84753955078125 0.012749999999999984 Q -5.81703955078125 0.025499999999999967 -5.79453955078125 0.04824999999999996 Q -5.77203955078125 0.07099999999999995 -5.75953955078125 0.10199999999999995 Q -5.74703955078125 0.13299999999999995 -5.74703955078125 0.16999999999999996 Q -5.74703955078125 0.20699999999999996 -5.75953955078125 0.23799999999999996 Q -5.77203955078125 0.26899999999999996 -5.79453955078125 0.29174999999999995 Q -5.81703955078125 0.31449999999999995 -5.84753955078125 0.32725 Q -5.87803955078125 0.33999999999999997 -5.91403955078125 0.33999999999999997 M -5.90353955078125 0.31499999999999995 Q -5.87153955078125 0.31499999999999995 -5.84728955078125 0.29899999999999993 Q -5.82303955078125 0.283 -5.80928955078125 0.25399999999999995 Q -5.79553955078125 0.22499999999999998 -5.79553955078125 0.18549999999999997 Q -5.79553955078125 0.13699999999999996 -5.81253955078125 0.10074999999999995 Q -5.82953955078125 0.06449999999999995 -5.85828955078125 0.044499999999999984 Q -5.88703955078125 0.024499999999999966 -5.92253955078125 0.024499999999999966 Q -5.95453955078125 0.024499999999999966 -5.97928955078125 0.04024999999999995 Q -6.00403955078125 0.05599999999999994 -6.01803955078125 0.08499999999999996 Q -6.03203955078125 0.11399999999999996 -6.03203955078125 0.15349999999999997 Q -6.03203955078125 0.20199999999999996 -6.01478955078125 0.23849999999999996 Q -5.99753955078125 0.27499999999999997 -5.96853955078125 0.295 Q -5.93953955078125 0.31499999999999995 -5.90353955078125 0.31499999999999995 M -5.514541015625 0.33999999999999997 Q -5.552041015625 0.33999999999999997 -5.581291015625 0.32599999999999996 Q -5.610541015625 0.31199999999999994 -5.627541015625 0.28274999999999995 Q -5.644541015625 0.25349999999999995 -5.644541015625 0.20699999999999996 L -5.644541015625 0.032999999999999974 L -5.684541015625 0.012999999999999956 L -5.684541015625 0.004999999999999949 L -5.559541015625 0.004999999999999949 L -5.559541015625 0.012999999999999956 L -5.599541015625 0.032999999999999974 L -5.599541015625 0.19949999999999996 Q -5.599541015625 0.24099999999999996 -5.586541015625 0.26549999999999996 Q -5.573541015625 0.29 -5.551291015625 0.3005 Q -5.529041015625 0.31099999999999994 -5.501541015625 0.31099999999999994 Q -5.479541015625 0.31099999999999994 -5.460791015625 0.3015 Q -5.442041015625 0.292 -5.430791015625 0.27149999999999996 Q -5.419541015625 0.25099999999999995 -5.419541015625 0.21699999999999997 L -5.419541015625 0.03199999999999997 L -5.469541015625 0.012999999999999956 L -5.469541015625 0.004999999999999949 L -5.345041015625 0.004999999999999949 L -5.345041015625 0.012999999999999956 L -5.384541015625 0.03249999999999997 L -5.384541015625 0.20699999999999996 Q -5.384541015625 0.25349999999999995 -5.401541015625 0.28274999999999995 Q -5.418541015625 0.31199999999999994 -5.4477910156250005 0.32599999999999996 Q -5.477041015625 0.33999999999999997 -5.514541015625 0.33999999999999997 M -5.280030517578125 0.33499999999999996 L -5.280030517578125 0.32699999999999996 L -5.240030517578125 0.30699999999999994 L -5.240030517578125 0.032999999999999974 L -5.280030517578125 0.012999999999999956 L -5.280030517578125 0.004999999999999949 L -5.151030517578125 0.004999999999999949 Q -5.098530517578125 0.004999999999999949 -5.068280517578125 0.02674999999999994 Q -5.038030517578125 0.04849999999999993 -5.038030517578125 0.08649999999999997 Q -5.038030517578125 0.11449999999999996 -5.057030517578125 0.13674999999999995 Q -5.076030517578125 0.15899999999999997 -5.107530517578125 0.17049999999999996 L -5.012530517578125 0.30899999999999994 L -4.979530517578125 0.32699999999999996 L -4.979530517578125 0.33499999999999996 L -5.051530517578125 0.33499999999999996 L -5.148530517578125 0.18349999999999997 L -5.195030517578125 0.18349999999999997 L -5.195030517578125 0.30649999999999994 L -5.157530517578125 0.32699999999999996 L -5.157530517578125 0.33499999999999996 L -5.280030517578125 0.33499999999999996 M -5.162530517578125 0.03249999999999997 L -5.195030517578125 0.03249999999999997 L -5.195030517578125 0.15599999999999997 L -5.159530517578125 0.15599999999999997 Q -5.128030517578125 0.15599999999999997 -5.107280517578125 0.13824999999999996 Q -5.086530517578125 0.12049999999999997 -5.086530517578125 0.09299999999999997 Q -5.086530517578125 0.06499999999999995 -5.107030517578125 0.04874999999999996 Q -5.127530517578125 0.03249999999999997 -5.162530517578125 0.03249999999999997 M -4.654525146484375 0.33999999999999997 Q -4.692025146484375 0.33999999999999997 -4.721275146484375 0.32599999999999996 Q -4.750525146484375 0.31199999999999994 -4.767525146484375 0.28274999999999995 Q -4.784525146484375 0.25349999999999995 -4.784525146484375 0.20699999999999996 L -4.784525146484375 0.032999999999999974 L -4.824525146484375 0.012999999999999956 L -4.824525146484375 0.004999999999999949 L -4.699525146484375 0.004999999999999949 L -4.699525146484375 0.012999999999999956 L -4.739525146484375 0.032999999999999974 L -4.739525146484375 0.19949999999999996 Q -4.739525146484375 0.24099999999999996 -4.726525146484375 0.26549999999999996 Q -4.713525146484375 0.29 -4.691275146484375 0.3005 Q -4.669025146484375 0.31099999999999994 -4.641525146484375 0.31099999999999994 Q -4.619525146484375 0.31099999999999994 -4.600775146484375 0.3015 Q -4.582025146484375 0.292 -4.570775146484375 0.27149999999999996 Q -4.559525146484375 0.25099999999999995 -4.559525146484375 0.21699999999999997 L -4.559525146484375 0.03199999999999997 L -4.609525146484375 0.012999999999999956 L -4.609525146484375 0.004999999999999949 L -4.485025146484375 0.004999999999999949 L -4.485025146484375 0.012999999999999956 L -4.524525146484375 0.03249999999999997 L -4.524525146484375 0.20699999999999996 Q -4.524525146484375 0.25349999999999995 -4.541525146484375 0.28274999999999995 Q -4.558525146484375 0.31199999999999994 -4.5877751464843755 0.32599999999999996 Q -4.617025146484375 0.33999999999999997 -4.654525146484375 0.33999999999999997 M -4.4200146484375 0.33499999999999996 L -4.4200146484375 0.32699999999999996 L -4.3800146484375 0.30699999999999994 L -4.3800146484375 0.032999999999999974 L -4.4200146484375 0.012999999999999956 L -4.4200146484375 0.004999999999999949 L -4.2900146484375 0.004999999999999949 L -4.2900146484375 0.012999999999999956 L -4.3350146484375 0.032999999999999974 L -4.3350146484375 0.30749999999999994 L -4.2135146484375 0.30749999999999994 L -4.1795146484375 0.22399999999999998 L -4.1715146484375 0.22399999999999998 L -4.1715146484375 0.33499999999999996 L -4.4200146484375 0.33499999999999996 M -4.0654990234375 0.33499999999999996 L -4.0654990234375 0.32699999999999996 L -4.0154990234375 0.30699999999999994 L -4.0154990234375 0.03249999999999997 L -4.0969990234375 0.03249999999999997 L -4.1309990234375 0.10599999999999996 L -4.1389990234375 0.10599999999999996 L -4.1389990234375 0.004999999999999949 L -3.8469990234375 0.004999999999999949 L -3.8469990234375 0.10599999999999996 L -3.8549990234375002 0.10599999999999996 L -3.8889990234375 0.03249999999999997 L -3.9704990234375 0.03249999999999997 L -3.9704990234375 0.30699999999999994 L -3.9204990234375 0.32699999999999996 L -3.9204990234375 0.33499999999999996 L -4.0654990234375 0.33499999999999996 M -3.789493408203125 0.33499999999999996 L -3.789493408203125 0.32699999999999996 L -3.749493408203125 0.30699999999999994 L -3.749493408203125 0.032999999999999974 L -3.789493408203125 0.012999999999999956 L -3.789493408203125 0.004999999999999949 L -3.664493408203125 0.004999999999999949 L -3.664493408203125 0.012999999999999956 L -3.704493408203125 0.032999999999999974 L -3.704493408203125 0.30699999999999994 L -3.664493408203125 0.32699999999999996 L -3.664493408203125 0.33499999999999996 L -3.789493408203125 0.33499999999999996 M -3.599486083984375 0.33499999999999996 L -3.599486083984375 0.32699999999999996 L -3.559986083984375 0.30699999999999994 L -3.549486083984375 0.033499999999999974 L -3.592486083984375 0.012999999999999956 L -3.592486083984375 0.004999999999999949 L -3.499986083984375 0.004999999999999949 L -3.384486083984375 0.27099999999999996 L -3.269486083984375 0.004999999999999949 L -3.181486083984375 0.004999999999999949 L -3.181486083984375 0.012999999999999956 L -3.223486083984375 0.032999999999999974 L -3.214986083984375 0.30699999999999994 L -3.179986083984375 0.32699999999999996 L -3.179986083984375 0.33499999999999996 L -3.2949860839843748 0.33499999999999996 L -3.2949860839843748 0.32699999999999996 L -3.257986083984375 0.30749999999999994 L -3.262986083984375 0.06099999999999994 L -3.382486083984375 0.33749999999999997 L -3.404986083984375 0.33749999999999997 L -3.522486083984375 0.06449999999999995 L -3.528986083984375 0.30749999999999994 L -3.488486083984375 0.32699999999999996 L -3.488486083984375 0.33499999999999996 L -3.599486083984375 0.33499999999999996 M -3.133493896484375 0.33499999999999996 L -3.133493896484375 0.32699999999999996 L -3.101493896484375 0.31049999999999994 L -2.973493896484375 0.0024999999999999467 L -2.950993896484375 0.0024999999999999467 L -2.824993896484375 0.30899999999999994 L -2.791493896484375 0.32699999999999996 L -2.791493896484375 0.33499999999999996 L -2.915493896484375 0.33499999999999996 L -2.915493896484375 0.32699999999999996 L -2.871493896484375 0.30999999999999994 L -2.908993896484375 0.21749999999999997 L -3.030493896484375 0.21749999999999997 L -3.067493896484375 0.30999999999999994 L -3.025493896484375 0.32699999999999996 L -3.025493896484375 0.33499999999999996 L -3.133493896484375 0.33499999999999996 M -3.0189938964843748 0.18999999999999997 L -2.919993896484375 0.18999999999999997 L -2.969493896484375 0.06699999999999995 L -3.0189938964843748 0.18999999999999997 M -2.694008544921875 0.33499999999999996 L -2.694008544921875 0.32699999999999996 L -2.644008544921875 0.30699999999999994 L -2.644008544921875 0.03249999999999997 L -2.725508544921875 0.03249999999999997 L -2.759508544921875 0.10599999999999996 L -2.767508544921875 0.10599999999999996 L -2.767508544921875 0.004999999999999949 L -2.475508544921875 0.004999999999999949 L -2.475508544921875 0.10599999999999996 L -2.4835085449218752 0.10599999999999996 L -2.517508544921875 0.03249999999999997 L -2.599008544921875 0.03249999999999997 L -2.599008544921875 0.30699999999999994 L -2.549008544921875 0.32699999999999996 L -2.549008544921875 0.33499999999999996 L -2.694008544921875 0.33499999999999996 M -2.4205029296875 0.33499999999999996 L -2.4205029296875 0.32699999999999996 L -2.3805029296875 0.30699999999999994 L -2.3805029296875 0.032999999999999974 L -2.4205029296875 0.012999999999999956 L -2.4205029296875 0.004999999999999949 L -2.1760029296875 0.004999999999999949 L -2.1760029296875 0.09099999999999997 L -2.1840029296875 0.09099999999999997 L -2.2150029296875 0.03249999999999997 L -2.3355029296875 0.03249999999999997 L -2.3355029296875 0.15099999999999997 L -2.2505029296875 0.15099999999999997 L -2.2255029296875 0.10949999999999996 L -2.2175029296875 0.10949999999999996 L -2.2175029296875 0.21899999999999997 L -2.2255029296875 0.21899999999999997 L -2.2505029296875 0.17849999999999996 L -2.3355029296875 0.17849999999999996 L -2.3355029296875 0.30749999999999994 L -2.2010029296875 0.30749999999999994 L -2.1700029296875 0.24399999999999997 L -2.1620029296875 0.24399999999999997 L -2.1620029296875 0.33499999999999996 L -2.4205029296875 0.33499999999999996 M -1.80051416015625 0.33999999999999997 Q -1.84851416015625 0.33999999999999997 -1.88626416015625 0.31899999999999995 Q -1.92401416015625 0.298 -1.94551416015625 0.26175 Q -1.96701416015625 0.22549999999999998 -1.96701416015625 0.17899999999999996 Q -1.96701416015625 0.14049999999999996 -1.95326416015625 0.10799999999999996 Q -1.93951416015625 0.07549999999999996 -1.91476416015625 0.05124999999999996 Q -1.89001416015625 0.02699999999999997 -1.8580141601562499 0.013499999999999956 Q -1.82601416015625 -5.551115123125783e-17 -1.78901416015625 -5.551115123125783e-17 Q -1.76301416015625 -5.551115123125783e-17 -1.74451416015625 0.002999999999999947 Q -1.72601416015625 0.00599999999999995 -1.71151416015625 0.011499999999999955 Q -1.69701416015625 0.01699999999999996 -1.6825141601562499 0.023999999999999966 L -1.68001416015625 0.10649999999999996 L -1.68801416015625 0.10649999999999996 L -1.72051416015625 0.050499999999999934 Q -1.74151416015625 0.035999999999999976 -1.75626416015625 0.03049999999999997 Q -1.77101416015625 0.024999999999999967 -1.79001416015625 0.024999999999999967 Q -1.82851416015625 0.024999999999999967 -1.85851416015625 0.041749999999999954 Q -1.88851416015625 0.05849999999999994 -1.90551416015625 0.08774999999999997 Q -1.92251416015625 0.11699999999999997 -1.92251416015625 0.15399999999999997 Q -1.92251416015625 0.20399999999999996 -1.90426416015625 0.23899999999999996 Q -1.88601416015625 0.27399999999999997 -1.85501416015625 0.2925 Q -1.82401416015625 0.31099999999999994 -1.78601416015625 0.31099999999999994 Q -1.76951416015625 0.31099999999999994 -1.75426416015625 0.30899999999999994 Q -1.73901416015625 0.30699999999999994 -1.72251416015625 0.3005 L -1.72251416015625 0.21799999999999997 L -1.76701416015625 0.19799999999999995 L -1.76701416015625 0.18999999999999997 L -1.64301416015625 0.18999999999999997 L -1.64301416015625 0.19799999999999995 L -1.67751416015625 0.21949999999999997 L -1.67751416015625 0.298 Q -1.7005141601562501 0.31699999999999995 -1.73426416015625 0.32849999999999996 Q -1.76801416015625 0.33999999999999997 -1.80051416015625 0.33999999999999997 M -1.4205163574218749 0.33999999999999997 Q -1.458016357421875 0.33999999999999997 -1.487266357421875 0.32599999999999996 Q -1.516516357421875 0.31199999999999994 -1.533516357421875 0.28274999999999995 Q -1.550516357421875 0.25349999999999995 -1.550516357421875 0.20699999999999996 L -1.550516357421875 0.032999999999999974 L -1.590516357421875 0.012999999999999956 L -1.590516357421875 0.004999999999999949 L -1.465516357421875 0.004999999999999949 L -1.465516357421875 0.012999999999999956 L -1.505516357421875 0.032999999999999974 L -1.505516357421875 0.19949999999999996 Q -1.505516357421875 0.24099999999999996 -1.492516357421875 0.26549999999999996 Q -1.479516357421875 0.29 -1.457266357421875 0.3005 Q -1.435016357421875 0.31099999999999994 -1.407516357421875 0.31099999999999994 Q -1.385516357421875 0.31099999999999994 -1.366766357421875 0.3015 Q -1.348016357421875 0.292 -1.336766357421875 0.27149999999999996 Q -1.3255163574218751 0.25099999999999995 -1.3255163574218751 0.21699999999999997 L -1.3255163574218751 0.03199999999999997 L -1.375516357421875 0.012999999999999956 L -1.375516357421875 0.004999999999999949 L -1.2510163574218751 0.004999999999999949 L -1.2510163574218751 0.012999999999999956 L -1.290516357421875 0.03249999999999997 L -1.290516357421875 0.20699999999999996 Q -1.290516357421875 0.25349999999999995 -1.3075163574218749 0.28274999999999995 Q -1.324516357421875 0.31199999999999994 -1.353766357421875 0.32599999999999996 Q -1.383016357421875 0.33999999999999997 -1.4205163574218749 0.33999999999999997 M -1.183505859375 0.33499999999999996 L -1.183505859375 0.32699999999999996 L -1.143505859375 0.30699999999999994 L -1.143505859375 0.032999999999999974 L -1.183505859375 0.012999999999999956 L -1.183505859375 0.004999999999999949 L -1.058505859375 0.004999999999999949 L -1.058505859375 0.012999999999999956 L -1.098505859375 0.032999999999999974 L -1.098505859375 0.30699999999999994 L -1.058505859375 0.32699999999999996 L -1.058505859375 0.33499999999999996 L -1.183505859375 0.33499999999999996 M -0.99099853515625 0.33499999999999996 L -0.99099853515625 0.32699999999999996 L -0.95099853515625 0.30699999999999994 L -0.95099853515625 0.032999999999999974 L -0.99099853515625 0.012999999999999956 L -0.99099853515625 0.004999999999999949 L -0.84449853515625 0.004999999999999949 Q -0.78949853515625 0.004999999999999949 -0.75049853515625 0.024499999999999966 Q -0.71149853515625 0.043999999999999984 -0.6912485351562501 0.07799999999999996 Q -0.67099853515625 0.11199999999999996 -0.67099853515625 0.15499999999999997 Q -0.67099853515625 0.19399999999999995 -0.68424853515625 0.22699999999999998 Q -0.6974985351562499 0.25999999999999995 -0.72149853515625 0.284 Q -0.74549853515625 0.30799999999999994 -0.77774853515625 0.32149999999999995 Q -0.80999853515625 0.33499999999999996 -0.84799853515625 0.33499999999999996 L -0.99099853515625 0.33499999999999996 M -0.85599853515625 0.03249999999999997 L -0.90599853515625 0.03249999999999997 L -0.90599853515625 0.30749999999999994 L -0.84849853515625 0.30749999999999994 Q -0.80849853515625 0.30749999999999994 -0.77924853515625 0.29074999999999995 Q -0.7499985351562499 0.27399999999999997 -0.73424853515625 0.24324999999999997 Q -0.7184985351562501 0.21249999999999997 -0.7184985351562501 0.17049999999999996 Q -0.7184985351562501 0.12899999999999995 -0.7344985351562501 0.09774999999999995 Q -0.75049853515625 0.06649999999999995 -0.78124853515625 0.04949999999999993 Q -0.81199853515625 0.03249999999999997 -0.85599853515625 0.03249999999999997 M -0.603486328125 0.33499999999999996 L -0.603486328125 0.32699999999999996 L -0.563486328125 0.30699999999999994 L -0.563486328125 0.032999999999999974 L -0.603486328125 0.012999999999999956 L -0.603486328125 0.004999999999999949 L -0.358986328125 0.004999999999999949 L -0.358986328125 0.09099999999999997 L -0.366986328125 0.09099999999999997 L -0.397986328125 0.03249999999999997 L -0.518486328125 0.03249999999999997 L -0.518486328125 0.15099999999999997 L -0.433486328125 0.15099999999999997 L -0.40848632812499996 0.10949999999999996 L -0.40048632812499996 0.10949999999999996 L -0.40048632812499996 0.21899999999999997 L -0.40848632812499996 0.21899999999999997 L -0.433486328125 0.17849999999999996 L -0.518486328125 0.17849999999999996 L -0.518486328125 0.30749999999999994 L -0.383986328125 0.30749999999999994 L -0.35298632812499997 0.24399999999999997 L -0.344986328125 0.24399999999999997 L -0.344986328125 0.33499999999999996 L -0.603486328125 0.33499999999999996 M -0.08899755859375 0.33499999999999996 L -0.08899755859375 0.32699999999999996 L -0.03899755859375001 0.30699999999999994 L -0.03899755859375001 0.03249999999999997 L -0.12049755859375 0.03249999999999997 L -0.15449755859375 0.10599999999999996 L -0.16249755859375 0.10599999999999996 L -0.16249755859375 0.004999999999999949 L 0.12950244140625 0.004999999999999949 L 0.12950244140625 0.10599999999999996 L 0.12150244140625 0.10599999999999996 L 0.08750244140625002 0.03249999999999997 L 0.006002441406250003 0.03249999999999997 L 0.006002441406250003 0.30699999999999994 L 0.05600244140624999 0.32699999999999996 L 0.05600244140624999 0.33499999999999996 L -0.08899755859375 0.33499999999999996 M 0.353508056640625 0.33999999999999997 Q 0.317508056640625 0.33999999999999997 0.287258056640625 0.32725 Q 0.257008056640625 0.31449999999999995 0.23450805664062502 0.29174999999999995 Q 0.212008056640625 0.26899999999999996 0.199508056640625 0.23799999999999996 Q 0.187008056640625 0.20699999999999996 0.187008056640625 0.16999999999999996 Q 0.187008056640625 0.13299999999999995 0.199508056640625 0.10199999999999995 Q 0.212008056640625 0.07099999999999995 0.23450805664062502 0.04824999999999996 Q 0.257008056640625 0.025499999999999967 0.287258056640625 0.012749999999999984 Q 0.317508056640625 -5.551115123125783e-17 0.353508056640625 -5.551115123125783e-17 Q 0.38950805664062504 -5.551115123125783e-17 0.420008056640625 0.012749999999999984 Q 0.450508056640625 0.025499999999999967 0.473008056640625 0.04824999999999996 Q 0.495508056640625 0.07099999999999995 0.508008056640625 0.10199999999999995 Q 0.520508056640625 0.13299999999999995 0.520508056640625 0.16999999999999996 Q 0.520508056640625 0.20699999999999996 0.508008056640625 0.23799999999999996 Q 0.495508056640625 0.26899999999999996 0.473008056640625 0.29174999999999995 Q 0.450508056640625 0.31449999999999995 0.420008056640625 0.32725 Q 0.38950805664062504 0.33999999999999997 0.353508056640625 0.33999999999999997 M 0.36400805664062497 0.31499999999999995 Q 0.396008056640625 0.31499999999999995 0.420258056640625 0.29899999999999993 Q 0.444508056640625 0.283 0.458258056640625 0.25399999999999995 Q 0.472008056640625 0.22499999999999998 0.472008056640625 0.18549999999999997 Q 0.472008056640625 0.13699999999999996 0.455008056640625 0.10074999999999995 Q 0.43800805664062503 0.06449999999999995 0.409258056640625 0.044499999999999984 Q 0.38050805664062504 0.024499999999999966 0.345008056640625 0.024499999999999966 Q 0.31300805664062503 0.024499999999999966 0.288258056640625 0.04024999999999995 Q 0.263508056640625 0.05599999999999994 0.249508056640625 0.08499999999999996 Q 0.23550805664062502 0.11399999999999996 0.23550805664062502 0.15349999999999997 Q 0.23550805664062502 0.20199999999999996 0.252758056640625 0.23849999999999996 Q 0.270008056640625 0.27499999999999997 0.299008056640625 0.295 Q 0.328008056640625 0.31499999999999995 0.36400805664062497 0.31499999999999995 M 0.776511474609375 0.33499999999999996 L 0.776511474609375 0.32699999999999996 L 0.826511474609375 0.30699999999999994 L 0.826511474609375 0.03249999999999997 L 0.745011474609375 0.03249999999999997 L 0.711011474609375 0.10599999999999996 L 0.703011474609375 0.10599999999999996 L 0.703011474609375 0.004999999999999949 L 0.995011474609375 0.004999999999999949 L 0.995011474609375 0.10599999999999996 L 0.987011474609375 0.10599999999999996 L 0.953011474609375 0.03249999999999997 L 0.8715114746093751 0.03249999999999997 L 0.8715114746093751 0.30699999999999994 L 0.921511474609375 0.32699999999999996 L 0.921511474609375 0.33499999999999996 L 0.776511474609375 0.33499999999999996 M 1.05001708984375 0.33499999999999996 L 1.05001708984375 0.32699999999999996 L 1.09001708984375 0.30699999999999994 L 1.09001708984375 0.032999999999999974 L 1.05001708984375 0.012999999999999956 L 1.05001708984375 0.004999999999999949 L 1.17501708984375 0.004999999999999949 L 1.17501708984375 0.012999999999999956 L 1.13501708984375 0.032999999999999974 L 1.13501708984375 0.15099999999999997 L 1.30501708984375 0.15099999999999997 L 1.30501708984375 0.032999999999999974 L 1.26501708984375 0.012999999999999956 L 1.26501708984375 0.004999999999999949 L 1.39001708984375 0.004999999999999949 L 1.39001708984375 0.012999999999999956 L 1.35001708984375 0.032999999999999974 L 1.35001708984375 0.30699999999999994 L 1.39001708984375 0.32699999999999996 L 1.39001708984375 0.33499999999999996 L 1.26501708984375 0.33499999999999996 L 1.26501708984375 0.32699999999999996 L 1.30501708984375 0.30699999999999994 L 1.30501708984375 0.17849999999999996 L 1.13501708984375 0.17849999999999996 L 1.13501708984375 0.30699999999999994 L 1.17501708984375 0.32699999999999996 L 1.17501708984375 0.33499999999999996 L 1.05001708984375 0.33499999999999996 M 1.455015869140625 0.33499999999999996 L 1.455015869140625 0.32699999999999996 L 1.495015869140625 0.30699999999999994 L 1.495015869140625 0.032999999999999974 L 1.455015869140625 0.012999999999999956 L 1.455015869140625 0.004999999999999949 L 1.6995158691406251 0.004999999999999949 L 1.6995158691406251 0.09099999999999997 L 1.6915158691406251 0.09099999999999997 L 1.660515869140625 0.03249999999999997 L 1.540015869140625 0.03249999999999997 L 1.540015869140625 0.15099999999999997 L 1.6250158691406251 0.15099999999999997 L 1.650015869140625 0.10949999999999996 L 1.658015869140625 0.10949999999999996 L 1.658015869140625 0.21899999999999997 L 1.650015869140625 0.21899999999999997 L 1.6250158691406251 0.17849999999999996 L 1.540015869140625 0.17849999999999996 L 1.540015869140625 0.30749999999999994 L 1.674515869140625 0.30749999999999994 L 1.705515869140625 0.24399999999999997 L 1.713515869140625 0.24399999999999997 L 1.713515869140625 0.33499999999999996 L 1.455015869140625 0.33499999999999996 M 2.010504638671875 0.33749999999999997 L 1.918504638671875 0.030999999999999972 L 1.881004638671875 0.012999999999999956 L 1.881004638671875 0.004999999999999949 L 2.008004638671875 0.004999999999999949 L 2.008004638671875 0.012999999999999956 L 1.965504638671875 0.03149999999999997 L 2.028004638671875 0.24799999999999994 L 2.030504638671875 0.24799999999999994 L 2.117004638671875 0.0024999999999999467 L 2.135504638671875 0.0024999999999999467 L 2.2240046386718753 0.24799999999999994 L 2.227004638671875 0.24799999999999994 L 2.288504638671875 0.03199999999999997 L 2.246004638671875 0.012999999999999956 L 2.246004638671875 0.004999999999999949 L 2.356504638671875 0.004999999999999949 L 2.356504638671875 0.012999999999999956 L 2.323004638671875 0.03149999999999997 L 2.230004638671875 0.33749999999999997 L 2.212504638671875 0.33749999999999997 L 2.121504638671875 0.09249999999999997 L 2.119004638671875 0.09249999999999997 L 2.028004638671875 0.33749999999999997 L 2.010504638671875 0.33749999999999997 M 2.5555039062500002 0.33999999999999997 Q 2.51950390625 0.33999999999999997 2.48925390625 0.32725 Q 2.45900390625 0.31449999999999995 2.43650390625 0.29174999999999995 Q 2.41400390625 0.26899999999999996 2.40150390625 0.23799999999999996 Q 2.38900390625 0.20699999999999996 2.38900390625 0.16999999999999996 Q 2.38900390625 0.13299999999999995 2.40150390625 0.10199999999999995 Q 2.41400390625 0.07099999999999995 2.43650390625 0.04824999999999996 Q 2.45900390625 0.025499999999999967 2.48925390625 0.012749999999999984 Q 2.51950390625 -5.551115123125783e-17 2.5555039062500002 -5.551115123125783e-17 Q 2.59150390625 -5.551115123125783e-17 2.62200390625 0.012749999999999984 Q 2.6525039062499998 0.025499999999999967 2.67500390625 0.04824999999999996 Q 2.69750390625 0.07099999999999995 2.71000390625 0.10199999999999995 Q 2.72250390625 0.13299999999999995 2.72250390625 0.16999999999999996 Q 2.72250390625 0.20699999999999996 2.71000390625 0.23799999999999996 Q 2.69750390625 0.26899999999999996 2.67500390625 0.29174999999999995 Q 2.6525039062499998 0.31449999999999995 2.62200390625 0.32725 Q 2.59150390625 0.33999999999999997 2.5555039062500002 0.33999999999999997 M 2.56600390625 0.31499999999999995 Q 2.5980039062499998 0.31499999999999995 2.62225390625 0.29899999999999993 Q 2.64650390625 0.283 2.66025390625 0.25399999999999995 Q 2.67400390625 0.22499999999999998 2.67400390625 0.18549999999999997 Q 2.67400390625 0.13699999999999996 2.65700390625 0.10074999999999995 Q 2.64000390625 0.06449999999999995 2.61125390625 0.044499999999999984 Q 2.58250390625 0.024499999999999966 2.54700390625 0.024499999999999966 Q 2.51500390625 0.024499999999999966 2.49025390625 0.04024999999999995 Q 2.46550390625 0.05599999999999994 2.45150390625 0.08499999999999996 Q 2.43750390625 0.11399999999999996 2.43750390625 0.15349999999999997 Q 2.43750390625 0.20199999999999996 2.45475390625 0.23849999999999996 Q 2.47200390625 0.27499999999999997 2.50100390625 0.295 Q 2.53000390625 0.31499999999999995 2.56600390625 0.31499999999999995 M 2.79000732421875 0.33499999999999996 L 2.79000732421875 0.32699999999999996 L 2.83000732421875 0.30699999999999994 L 2.83000732421875 0.032999999999999974 L 2.79000732421875 0.012999999999999956 L 2.79000732421875 0.004999999999999949 L 2.91900732421875 0.004999999999999949 Q 2.97150732421875 0.004999999999999949 3.00175732421875 0.02674999999999994 Q 3.03200732421875 0.04849999999999993 3.03200732421875 0.08649999999999997 Q 3.03200732421875 0.11449999999999996 3.01300732421875 0.13674999999999995 Q 2.99400732421875 0.15899999999999997 2.96250732421875 0.17049999999999996 L 3.05750732421875 0.30899999999999994 L 3.09050732421875 0.32699999999999996 L 3.09050732421875 0.33499999999999996 L 3.01850732421875 0.33499999999999996 L 2.92150732421875 0.18349999999999997 L 2.87500732421875 0.18349999999999997 L 2.87500732421875 0.30649999999999994 L 2.91250732421875 0.32699999999999996 L 2.91250732421875 0.33499999999999996 L 2.79000732421875 0.33499999999999996 M 2.90750732421875 0.03249999999999997 L 2.87500732421875 0.03249999999999997 L 2.87500732421875 0.15599999999999997 L 2.91050732421875 0.15599999999999997 Q 2.94200732421875 0.15599999999999997 2.96275732421875 0.13824999999999996 Q 2.98350732421875 0.12049999999999997 2.98350732421875 0.09299999999999997 Q 2.98350732421875 0.06499999999999995 2.96300732421875 0.04874999999999996 Q 2.94250732421875 0.03249999999999997 2.90750732421875 0.03249999999999997 M 3.1205126953125 0.33499999999999996 L 3.1205126953125 0.32699999999999996 L 3.1605126953125 0.30699999999999994 L 3.1605126953125 0.032999999999999974 L 3.1205126953125 0.012999999999999956 L 3.1205126953125 0.004999999999999949 L 3.2505126953125 0.004999999999999949 L 3.2505126953125 0.012999999999999956 L 3.2055126953125 0.032999999999999974 L 3.2055126953125 0.30749999999999994 L 3.3270126953125 0.30749999999999994 L 3.3610126953125 0.22399999999999998 L 3.3690126953125 0.22399999999999998 L 3.3690126953125 0.33499999999999996 L 3.1205126953125 0.33499999999999996 M 3.431517333984375 0.33499999999999996 L 3.431517333984375 0.32699999999999996 L 3.471517333984375 0.30699999999999994 L 3.471517333984375 0.032999999999999974 L 3.431517333984375 0.012999999999999956 L 3.431517333984375 0.004999999999999949 L 3.578017333984375 0.004999999999999949 Q 3.633017333984375 0.004999999999999949 3.672017333984375 0.024499999999999966 Q 3.711017333984375 0.043999999999999984 3.731267333984375 0.07799999999999996 Q 3.751517333984375 0.11199999999999996 3.751517333984375 0.15499999999999997 Q 3.751517333984375 0.19399999999999995 3.738267333984375 0.22699999999999998 Q 3.725017333984375 0.25999999999999995 3.701017333984375 0.284 Q 3.677017333984375 0.30799999999999994 3.644767333984375 0.32149999999999995 Q 3.612517333984375 0.33499999999999996 3.574517333984375 0.33499999999999996 L 3.431517333984375 0.33499999999999996 M 3.566517333984375 0.03249999999999997 L 3.516517333984375 0.03249999999999997 L 3.516517333984375 0.30749999999999994 L 3.574017333984375 0.30749999999999994 Q 3.614017333984375 0.30749999999999994 3.643267333984375 0.29074999999999995 Q 3.672517333984375 0.27399999999999997 3.688267333984375 0.24324999999999997 Q 3.704017333984375 0.21249999999999997 3.704017333984375 0.17049999999999996 Q 3.704017333984375 0.12899999999999995 3.688017333984375 0.09774999999999995 Q 3.672017333984375 0.06649999999999995 3.641267333984375 0.04949999999999993 Q 3.610517333984375 0.03249999999999997 3.566517333984375 0.03249999999999997 M 4.113029541015625 0.33999999999999997 Q 4.077029541015625 0.33999999999999997 4.046779541015625 0.32725 Q 4.016529541015625 0.31449999999999995 3.994029541015625 0.29174999999999995 Q 3.971529541015625 0.26899999999999996 3.959029541015625 0.23799999999999996 Q 3.946529541015625 0.20699999999999996 3.946529541015625 0.16999999999999996 Q 3.946529541015625 0.13299999999999995 3.959029541015625 0.10199999999999995 Q 3.971529541015625 0.07099999999999995 3.994029541015625 0.04824999999999996 Q 4.016529541015625 0.025499999999999967 4.046779541015625 0.012749999999999984 Q 4.077029541015625 -5.551115123125783e-17 4.113029541015625 -5.551115123125783e-17 Q 4.149029541015625 -5.551115123125783e-17 4.179529541015625 0.012749999999999984 Q 4.210029541015625 0.025499999999999967 4.232529541015625 0.04824999999999996 Q 4.255029541015625 0.07099999999999995 4.267529541015625 0.10199999999999995 Q 4.280029541015625 0.13299999999999995 4.280029541015625 0.16999999999999996 Q 4.280029541015625 0.20699999999999996 4.267529541015625 0.23799999999999996 Q 4.255029541015625 0.26899999999999996 4.232529541015625 0.29174999999999995 Q 4.210029541015625 0.31449999999999995 4.179529541015625 0.32725 Q 4.149029541015625 0.33999999999999997 4.113029541015625 0.33999999999999997 M 4.123529541015625 0.31499999999999995 Q 4.155529541015625 0.31499999999999995 4.179779541015625 0.29899999999999993 Q 4.204029541015625 0.283 4.217779541015625 0.25399999999999995 Q 4.231529541015625 0.22499999999999998 4.231529541015625 0.18549999999999997 Q 4.231529541015625 0.13699999999999996 4.214529541015625 0.10074999999999995 Q 4.197529541015625 0.06449999999999995 4.168779541015625 0.044499999999999984 Q 4.140029541015625 0.024499999999999966 4.104529541015625 0.024499999999999966 Q 4.072529541015625 0.024499999999999966 4.047779541015625 0.04024999999999995 Q 4.023029541015625 0.05599999999999994 4.009029541015625 0.08499999999999996 Q 3.995029541015625 0.11399999999999996 3.995029541015625 0.15349999999999997 Q 3.995029541015625 0.20199999999999996 4.012279541015625 0.23849999999999996 Q 4.029529541015625 0.27499999999999997 4.058529541015625 0.295 Q 4.087529541015625 0.31499999999999995 4.123529541015625 0.31499999999999995 M 4.347532958984375 0.33499999999999996 L 4.347532958984375 0.32699999999999996 L 4.387532958984375 0.30699999999999994 L 4.387532958984375 0.032999999999999974 L 4.347532958984375 0.012999999999999956 L 4.347532958984375 0.004999999999999949 L 4.587032958984375 0.004999999999999949 L 4.587032958984375 0.09099999999999997 L 4.579032958984375 0.09099999999999997 L 4.548032958984375 0.03249999999999997 L 4.432532958984375 0.03249999999999997 L 4.432532958984375 0.15099999999999997 L 4.512532958984375 0.15099999999999997 L 4.537532958984375 0.10949999999999996 L 4.545532958984375 0.10949999999999996 L 4.545532958984375 0.21899999999999997 L 4.537532958984375 0.21899999999999997 L 4.512532958984375 0.17849999999999996 L 4.432532958984375 0.17849999999999996 L 4.432532958984375 0.30699999999999994 L 4.477532958984375 0.32699999999999996 L 4.477532958984375 0.33499999999999996 L 4.347532958984375 0.33499999999999996 M 4.777039794921875 0.33499999999999996 L 4.777039794921875 0.32699999999999996 L 4.816539794921875 0.30699999999999994 L 4.827039794921875 0.033499999999999974 L 4.784039794921875 0.012999999999999956 L 4.784039794921875 0.004999999999999949 L 4.876539794921875 0.004999999999999949 L 4.992039794921875 0.27099999999999996 L 5.107039794921875 0.004999999999999949 L 5.195039794921875 0.004999999999999949 L 5.195039794921875 0.012999999999999956 L 5.153039794921875 0.032999999999999974 L 5.161539794921875 0.30699999999999994 L 5.1965397949218755 0.32699999999999996 L 5.1965397949218755 0.33499999999999996 L 5.081539794921875 0.33499999999999996 L 5.081539794921875 0.32699999999999996 L 5.118539794921875 0.30749999999999994 L 5.113539794921875 0.06099999999999994 L 4.994039794921875 0.33749999999999997 L 4.971539794921875 0.33749999999999997 L 4.854039794921875 0.06449999999999995 L 4.847539794921875 0.30749999999999994 L 4.888039794921875 0.32699999999999996 L 4.888039794921875 0.33499999999999996 L 4.777039794921875 0.33499999999999996 M 5.429031982421875 0.33999999999999997 Q 5.391531982421875 0.33999999999999997 5.362281982421875 0.32599999999999996 Q 5.333031982421875 0.31199999999999994 5.316031982421875 0.28274999999999995 Q 5.299031982421875 0.25349999999999995 5.299031982421875 0.20699999999999996 L 5.299031982421875 0.032999999999999974 L 5.259031982421875 0.012999999999999956 L 5.259031982421875 0.004999999999999949 L 5.384031982421875 0.004999999999999949 L 5.384031982421875 0.012999999999999956 L 5.344031982421875 0.032999999999999974 L 5.344031982421875 0.19949999999999996 Q 5.344031982421875 0.24099999999999996 5.357031982421875 0.26549999999999996 Q 5.370031982421875 0.29 5.392281982421875 0.3005 Q 5.414531982421875 0.31099999999999994 5.442031982421875 0.31099999999999994 Q 5.464031982421875 0.31099999999999994 5.482781982421875 0.3015 Q 5.501531982421875 0.292 5.512781982421875 0.27149999999999996 Q 5.524031982421875 0.25099999999999995 5.524031982421875 0.21699999999999997 L 5.524031982421875 0.03199999999999997 L 5.474031982421875 0.012999999999999956 L 5.474031982421875 0.004999999999999949 L 5.598531982421875 0.004999999999999949 L 5.598531982421875 0.012999999999999956 L 5.559031982421875 0.03249999999999997 L 5.559031982421875 0.20699999999999996 Q 5.559031982421875 0.25349999999999995 5.542031982421875 0.28274999999999995 Q 5.525031982421875 0.31199999999999994 5.4957819824218745 0.32599999999999996 Q 5.466531982421875 0.33999999999999997 5.429031982421875 0.33999999999999997 M 5.76304248046875 0.33999999999999997 Q 5.73204248046875 0.33999999999999997 5.71054248046875 0.33425 Q 5.68904248046875 0.32849999999999996 5.66604248046875 0.31699999999999995 L 5.66104248046875 0.23499999999999996 L 5.66904248046875 0.23499999999999996 L 5.69354248046875 0.288 Q 5.71154248046875 0.30299999999999994 5.72854248046875 0.30974999999999997 Q 5.74554248046875 0.31649999999999995 5.76304248046875 0.31649999999999995 Q 5.79254248046875 0.31649999999999995 5.80929248046875 0.30099999999999993 Q 5.82604248046875 0.2855 5.82604248046875 0.25899999999999995 Q 5.82604248046875 0.23699999999999996 5.81629248046875 0.22449999999999998 Q 5.80654248046875 0.21199999999999997 5.78829248046875 0.20224999999999996 Q 5.77004248046875 0.19249999999999995 5.74504248046875 0.17999999999999997 Q 5.72154248046875 0.16799999999999995 5.70504248046875 0.15649999999999997 Q 5.68854248046875 0.14499999999999996 5.68004248046875 0.12974999999999995 Q 5.67154248046875 0.11449999999999996 5.67154248046875 0.09149999999999997 Q 5.67154248046875 0.07449999999999996 5.67979248046875 0.05824999999999997 Q 5.68804248046875 0.04199999999999998 5.70229248046875 0.028749999999999942 Q 5.71654248046875 0.015499999999999958 5.73429248046875 0.007749999999999979 Q 5.75204248046875 -5.551115123125783e-17 5.77104248046875 -5.551115123125783e-17 Q 5.79404248046875 -5.551115123125783e-17 5.81354248046875 0.005499999999999949 Q 5.83304248046875 0.010999999999999954 5.85354248046875 0.020999999999999963 L 5.85854248046875 0.10099999999999995 L 5.85054248046875 0.10099999999999995 L 5.82754248046875 0.04849999999999993 Q 5.81004248046875 0.035499999999999976 5.79704248046875 0.029749999999999943 Q 5.78404248046875 0.023999999999999966 5.76704248046875 0.023999999999999966 Q 5.74504248046875 0.023999999999999966 5.73079248046875 0.03899999999999998 Q 5.71654248046875 0.05399999999999994 5.71654248046875 0.07599999999999996 Q 5.71654248046875 0.10149999999999995 5.73204248046875 0.11574999999999996 Q 5.74754248046875 0.12999999999999995 5.78054248046875 0.14599999999999996 Q 5.81104248046875 0.16099999999999995 5.8305424804687505 0.17374999999999996 Q 5.85004248046875 0.18649999999999997 5.85954248046875 0.20299999999999996 Q 5.86904248046875 0.21949999999999997 5.86904248046875 0.24499999999999997 Q 5.86904248046875 0.26849999999999996 5.85904248046875 0.28624999999999995 Q 5.84904248046875 0.30399999999999994 5.83329248046875 0.31599999999999995 Q 5.81754248046875 0.32799999999999996 5.79879248046875 0.33399999999999996 Q 5.78004248046875 0.33999999999999997 5.76304248046875 0.33999999999999997 M 5.93154541015625 0.33499999999999996 L 5.93154541015625 0.32699999999999996 L 5.97154541015625 0.30699999999999994 L 5.97154541015625 0.032999999999999974 L 5.93154541015625 0.012999999999999956 L 5.93154541015625 0.004999999999999949 L 6.05654541015625 0.004999999999999949 L 6.05654541015625 0.012999999999999956 L 6.01654541015625 0.032999999999999974 L 6.01654541015625 0.30699999999999994 L 6.05654541015625 0.32699999999999996 L 6.05654541015625 0.33499999999999996 L 5.93154541015625 0.33499999999999996 M 6.291552734375 0.33999999999999997 Q 6.240552734375 0.33999999999999997 6.203552734375 0.31899999999999995 Q 6.166552734375 0.298 6.146552734375 0.26175 Q 6.126552734375 0.22549999999999998 6.126552734375 0.17899999999999996 Q 6.126552734375 0.14349999999999996 6.140302734375 0.11124999999999996 Q 6.154052734375 0.07899999999999996 6.177802734375 0.05399999999999994 Q 6.201552734375 0.02899999999999997 6.232802734375 0.014499999999999957 Q 6.264052734375 -5.551115123125783e-17 6.299052734375 -5.551115123125783e-17 Q 6.324052734375 -5.551115123125783e-17 6.341552734375 0.003249999999999975 Q 6.359052734375 0.00649999999999995 6.372802734375 0.011749999999999983 Q 6.386552734375 0.01699999999999996 6.400552734375 0.023999999999999966 L 6.403052734375 0.11149999999999996 L 6.394052734375 0.11149999999999996 L 6.363552734375 0.050499999999999934 Q 6.344552734375 0.03699999999999998 6.330302734375 0.030999999999999972 Q 6.316052734375 0.024999999999999967 6.298052734375 0.024999999999999967 Q 6.262052734375 0.024999999999999967 6.233802734375 0.04299999999999998 Q 6.205552734375 0.06099999999999994 6.189302734375 0.09224999999999997 Q 6.173052734375 0.12349999999999997 6.173052734375 0.16399999999999995 Q 6.173052734375 0.21149999999999997 6.188802734375 0.24524999999999997 Q 6.204552734375 0.27899999999999997 6.231302734375 0.29674999999999996 Q 6.258052734375 0.31449999999999995 6.290552734375 0.31449999999999995 Q 6.318052734375 0.31449999999999995 6.336802734375 0.30674999999999997 Q 6.355552734375 0.29899999999999993 6.370052734375 0.2895 L 6.400052734375 0.23599999999999996 L 6.408552734375 0.23599999999999996 L 6.403052734375 0.31549999999999995 Q 6.388552734375 0.32299999999999995 6.373302734375 0.32849999999999996 Q 6.358052734375 0.33399999999999996 6.338552734375 0.33699999999999997 Q 6.319052734375 0.33999999999999997 6.291552734375 0.33999999999999997" fill="#dceac6" fill-rule="nonzero"></path></g><g transform="matrix(1,0,0,1,0,0)"><g clip-path="url(#SvgjsClipPath1003)"><g clip-path="url(#SvgjsClipPath10018cc52d49-20cc-45fe-87ae-ca0a9d403095)"><path d=" M 0.00015468748423352885 -2.4330982086478157 L 0.00015468748423352885 -3.137622355598734 L 0.268614816375061 -3.137622355598734 C 0.38531939766834467 -3.1388720558240233 0.49691827191872684 -3.185665316700962 0.5796140034306736 -3.268023904809323 L 0.9630842768506727 -3.6514941782293064 C 1.046813839006073 -3.73405946687396 1.1596634713652796 -3.7803717113699715 1.2772545573331235 -3.7804261963396564 L 1.796617785654041 -3.7804261963396564 L 1.796617785654041 -3.592867621704025 L 1.3450850191704025 -3.592867621704025 C 1.2275392814268786 -3.592814149804666 1.1147374382772581 -3.546498713220828 1.0310694261722058 -3.463935603593674 Z" fill="#fa6441" transform="matrix(1,0,0,1,0,0)" fill-rule="evenodd"></path></g><g clip-path="url(#SvgjsClipPath10018cc52d49-20cc-45fe-87ae-ca0a9d403095)"><path d=" M -0.4491351104779888 -1.9839630981698282 L -1.1537366011710275 -1.9839630981698282 L -1.1537366011710275 -2.252423227060666 C -1.154990249551295 -2.3691117847935947 -1.2017514027694012 -2.480700269713452 -1.2840608066394792 -2.5634224141162854 L -1.6675310800594783 -2.9468926875362715 C -1.7501129911888864 -3.030579767940634 -1.7964299488815292 -3.1434131003880874 -1.7964630981698282 -3.2609856242766013 L -1.7964630981698282 -3.7804261963396564 L -1.6089045235341843 -3.7804261963396564 L -1.6089045235341843 -3.328893429856019 C -1.6088337165870341 -3.2113433899414345 -1.5625538798560707 -3.098532815533024 -1.4800498491659204 -3.0148004931156405 Z" fill="#fa6441" transform="matrix(1,0,0,1,0,0)" fill-rule="evenodd"></path></g><g clip-path="url(#SvgjsClipPath10018cc52d49-20cc-45fe-87ae-ca0a9d403095)"><path d=" M 0.00015468748423352885 -3.137622355598734 L 0.00015468748423352885 -3.3309817108931994 C 0.0008768116889514843 -3.578732452906908 0.20153905594845734 -3.779394697166424 0.44928979796218127 -3.7801168213711853 L 0.6426491532566734 -3.7801168213711853 Z" fill="#fa6441" transform="matrix(1,0,0,1,0,0)" fill-rule="evenodd"></path></g><g clip-path="url(#SvgjsClipPath10018cc52d49-20cc-45fe-87ae-ca0a9d403095)"><path d=" M 1.7964630981698282 -3.0758247056466215 L 1.1536592574289213 -2.4330982086478157 L 1.3470186127233725 -2.4330982086478157 C 1.5947568431750139 -2.433777874573871 1.7954313916126734 -2.634417865658612 1.7961537232013611 -2.882155975383684 Z" fill="#fa6441" transform="matrix(1,0,0,1,0,0)" fill-rule="evenodd"></path></g><g clip-path="url(#SvgjsClipPath10018cc52d49-20cc-45fe-87ae-ca0a9d403095)"><path d=" M -1.1537366011710275 -1.9839630981698282 L -1.347095956465479 -1.9839630981698282 C -1.5948164933913496 -1.9847276697146043 -1.795431814293443 -2.1853775437205467 -1.7961537232013611 -2.4330982086478157 L -1.7961537232013611 -2.626457563942281 Z" fill="#fa6441" transform="matrix(1,0,0,1,0,0)" fill-rule="evenodd"></path></g><g clip-path="url(#SvgjsClipPath10018cc52d49-20cc-45fe-87ae-ca0a9d403095)"><path d=" M -1.0919389512189164 -3.7804261963396564 L -0.4491351104779888 -3.1376223555987326 L -0.4491351104779888 -3.3309817108931994 C -0.4498572346827272 -3.578732452906908 -0.650519478942233 -3.7793946971664227 -0.8982702209559571 -3.7801168213711853 Z" fill="#fa6441" transform="matrix(1,0,0,1,0,0)" fill-rule="evenodd"></path></g><g clip-path="url(#SvgjsClipPath10018cc52d49-20cc-45fe-87ae-ca0a9d403095)"><path d=" M 0.00015468748423352885 -0.8302264969988071 L 0.00015468748423352885 -0.6368671417043403 C -0.0005674367205048547 -0.3891163996906135 -0.2012296809800107 -0.18845415543110633 -0.44898042299373486 -0.18773203122635262 L -0.642339778288227 -0.18773203122635262 Z" fill="#fa6441" transform="matrix(1,0,0,1,0,0)" fill-rule="evenodd"></path></g><g clip-path="url(#SvgjsClipPath10018cc52d49-20cc-45fe-87ae-ca0a9d403095)"><path d=" M -1.7964630981698282 -0.8920241469509183 L -1.1537366011710275 -1.5348279876918434 L -1.347095956465479 -1.5348279876918434 C -1.5948164933913496 -1.5340634161470672 -1.795431814293443 -1.3334135421411246 -1.7961537232013611 -1.0856928772138557 Z" fill="#fa6441" transform="matrix(1,0,0,1,0,0)" fill-rule="evenodd"></path></g><g clip-path="url(#SvgjsClipPath10018cc52d49-20cc-45fe-87ae-ca0a9d403095)"><path d=" M 1.1536592574289009 -1.9839630981698282 L 1.3470186127233725 -1.9839630981698282 C 1.5947517891968166 -1.983198746270436 1.7953893713019677 -1.782561164165285 1.7961537232013407 -1.5348279876918407 L 1.7961537232013407 -1.3414686323973752 Z" fill="#fa6441" transform="matrix(1,0,0,1,0,0)" fill-rule="evenodd"></path></g><g clip-path="url(#SvgjsClipPath10018cc52d49-20cc-45fe-87ae-ca0a9d403095)"><path d=" M 1.0918616074767893 -0.18742265625788468 L 0.4491351104779888 -0.830226496998808 L 0.4491351104779888 -0.6368671417043417 C 0.4498572346827474 -0.38911639969061884 0.6505194789422537 -0.18845415543111166 0.8982702209559774 -0.18773203122635662 Z" fill="#fa6441" transform="matrix(1,0,0,1,0,0)" fill-rule="evenodd"></path></g><g clip-path="url(#SvgjsClipPath10018cc52d49-20cc-45fe-87ae-ca0a9d403095)"><path d=" M -0.4491351104779888 -2.252345883318549 L -0.4491351104779888 -1.7902943679068921 L -1.217003782223388 -1.0224256961615068 C -1.2996995137353144 -0.9400671080531464 -1.4112983879857173 -0.8932738471762076 -1.5280029692790005 -0.8920241469509183 L -1.7964630981698486 -0.8920241469509183 L -1.7964630981698486 -0.5663296488929186 L -1.603103742875377 -0.5663296488929186 C -1.4855000307691404 -0.5663964191889175 -1.372645843571483 -0.6127383158520692 -1.2889334623929263 -0.6953390107453865 L -0.5796913471728211 -1.4044264384812544 C -0.4970049253794846 -1.4867989240350812 -0.38540012749527786 -1.5335946686838668 -0.26869216011720853 -1.534827987691842 L 0.1934366990365579 -1.534827987691842 L 0.9613053707819568 -0.7669593159464583 C 1.0436472413766393 -0.6842273595573087 1.0904123897281421 -0.5726015870530414 1.0916295762504287 -0.45588278514872105 L 1.0916295762504287 -0.18742265625788468 L 1.4173240743084283 -0.18742265625788468 L 1.4173240743084283 -0.3807820115523497 C 1.417249282189916 -0.4983463110985773 1.3709385562232212 -0.6111644623588179 1.2883920561981193 -0.6948749482926364 L 0.5792272847200797 -1.404117063512785 C 0.4968848240719772 -1.4868551425013834 0.4500962440264138 -1.598470604508106 0.4488257355094809 -1.7151935943105245 L 0.4488257355094809 -2.1772451097221808 L 1.216771750997007 -2.9451911252096825 C 1.2994938953998336 -3.0275005290797745 1.4110823803196786 -3.0742616822978692 1.5277709380526197 -3.075515330678153 L 1.7962310669434676 -3.075515330678153 L 1.7962310669434676 -3.401519203704621 L 1.602871711648996 -3.401519203704621 C 1.4853074121027163 -3.401444411586097 1.3724892608424824 -3.3551336856193856 1.2887787749086723 -3.2725871855942694 L 0.5795366596885672 -2.5634224141162854 C 0.4968331079309867 -2.4810852373442596 0.3852327917863556 -2.4343191262515695 0.268537472632975 -2.4330982086478157 L -0.19359138652081187 -2.4330982086478157 L -0.9614600582662108 -3.2009668803931994 C -1.0438047592465975 -3.283671913297842 -1.0905955392043514 -3.3952648707178597 -1.0918616074767689 -3.51196606744882 L -1.0918616074767689 -3.7804261963396564 L -1.4174787617926823 -3.7804261963396564 L -1.4174787617926823 -3.587066841045191 C -1.4174456125044856 -3.4694943171570003 -1.371128654811904 -3.3566609847095137 -1.288546743682557 -3.27297390430509 L -0.5793819722043339 -2.563731789084756 C -0.49701493458155177 -2.480897000674979 -0.45027582520624354 -2.369156113296736 -0.4491351104779888 -2.252345883318549 Z" fill="#fa6441" transform="matrix(1,0,0,1,0,0)" fill-rule="evenodd"></path></g><g clip-path="url(#SvgjsClipPath10018cc52d49-20cc-45fe-87ae-ca0a9d403095)"><path d=" M 0.00015468748423352885 -1.5348279876918434 L 0.00015468748423352885 -0.8302264969988071 L -0.2683054414066146 -0.8302264969988071 C -0.38499737909006515 -0.8289892074271692 -0.49659177622406014 -0.7822255766958226 -0.5793046284622068 -0.6999022915303361 L -0.9627749018822263 -0.31635467436823195 C -1.04652315845525 -0.23381768167162553 -1.1593606683275892 -0.18751041211052888 -1.2769451823646563 -0.18742265625787935 L -1.7963084106855947 -0.18742265625787935 L -1.7963084106855947 -0.3750585746356312 L -1.3448529879440625 -0.3750585746356312 C -1.2272980224175067 -0.3751044300272226 -1.1144783568361816 -0.4213879963553464 -1.030760051203739 -0.5039132490038631 Z" fill="#fa6441" transform="matrix(1,0,0,1,0,0)" fill-rule="evenodd"></path></g><g clip-path="url(#SvgjsClipPath10018cc52d49-20cc-45fe-87ae-ca0a9d403095)"><path d=" M 0.4487483917673949 -1.9839630981698282 L 1.1534272262025607 -1.9839630981698282 L 1.1534272262025607 -1.7155029692789916 C 1.154697734719493 -1.5987799794765731 1.2014863147650774 -1.4871645174698505 1.2838287754131594 -1.4044264384812535 L 1.667299048833138 -1.0209561650612669 C 1.7498809599625462 -0.9372690846569052 1.7961979176551892 -0.8244357522094532 1.796231066943488 -0.7068632283209371 L 1.796231066943488 -0.18742265625788201 L 1.6086724923078648 -0.18742265625788201 L 1.6086724923078648 -0.6389554227415193 C 1.6086266369162299 -0.7565103882682234 1.562343070588059 -0.8693300538495481 1.4798178179395192 -0.9530483594819565 Z" fill="#fa6441" transform="matrix(1,0,0,1,0,0)" fill-rule="evenodd"></path></g></g></g></g><defs><clipPath id="SvgjsClipPath1003"><path d=" M -1.7964630981698282 -3.7804261963396564 h 3.5929261963396564 v 3.5929261963396564 h -3.5929261963396564 Z"></path></clipPath><clipPath id="SvgjsClipPath10018cc52d49-20cc-45fe-87ae-ca0a9d403095"><path d=" M -1.7964630981698282 -3.7804261963396564 L 1.7964630981698282 -3.7804261963396564 L 1.7964630981698282 -0.1875 L -1.7964630981698282 -0.1875 Z"></path></clipPath></defs></svg>